<svg xmlns="http://www.w3.org/2000/svg" viewBox="0 0 271.79 473.75"><defs><style>.cls-1{fill:#1a171b;}.cls-2{fill:none;stroke:#1a171b;}</style></defs><title>Neuron</title><g id="Zellkern"><path class="cls-1" d="M294.87,168.05c-2.61,8.56-10,16.13-19.62,13.08-8.47-2.69-10.84-12.93-9.51-20.63,1.58-9.15,10.36-17.05,19.82-14,9.08,2.89,11.07,14.09,9.16,22.11-.66,2.77,4.15,1.74,4.69-.52,2.41-10.15-1.36-23.33-12.81-25.91-11.69-2.63-21.78,6.17-25,16.88-3.1,10.15,1.29,23.87,12.66,26.44,11.69,2.63,21.77-6.17,25-16.88C300.17,165.59,295.58,165.72,294.87,168.05Z" transform="translate(-150.09 -42.24)"/></g><g id="soma"><path class="cls-2" d="M476,280.69" transform="translate(-150.09 -42.24)"/><path class="cls-2" d="M415.5,322.69" transform="translate(-150.09 -42.24)"/><path class="cls-2" d="M186.17,254.19" transform="translate(-150.09 -42.24)"/><path class="cls-2" d="M140,255.69" transform="translate(-150.09 -42.24)"/><path class="cls-2" d="M92,247.5" transform="translate(-150.09 -42.24)"/><path class="cls-2" d="M53,247.5" transform="translate(-150.09 -42.24)"/></g><g id="füße"><path class="cls-1" d="M257.25,205.32q3.44,68.84,6.86,137.68,2.73,54.9,5.47,109.79l3.55-2.36c-3.18-.64-6.8.86-9.78,1.77-5.72,1.74-11.33,3.88-16.91,6q-12.16,4.65-24.16,9.72l3,.78c-2.17-3.66-7.41-13.71-12.93-10.46-4.15,2.46-1.68,9.56-2.09,13.21a8.74,8.74,0,0,0,1.81,7c.58.73,3.7,3.08,3.88,2.53a1.53,1.53,0,0,0,.72,1.75c2.42,1.77,8.44,6.19,10.93,1.81a5.41,5.41,0,0,0,.39-3.82c-.16-.84-.38-1.67-.6-2.5s-.06-1.64-.5-1.05l-2.07,1.38-1.09,0a2.82,2.82,0,0,0,2.94-.29c6.11-5.06,14.86-8,22.1-10.94a95.94,95.94,0,0,1,11.7-4.2c.52-.14,1-.24,1.56-.33,1.36-.25-1.06.09-.73-1.15a7.94,7.94,0,0,1-1.64,2.4c-8.79,11.05-20,20.57-30.47,30l3.41-.69c-5.49-2.8-12.12-5.81-18.4-5-6.86.84-4.13,6.87-1.36,10.27a59.08,59.08,0,0,0,16.36,13.7c1.77,1,3.81,1.82,5.84,1.16,3.4-1.1,2.59-5.77,2.48-8.48-.17-3.86,2.51-5,4.77-7.82,2.66-3.32,5.06-6.84,7.83-10.07.52-.61,1.08-1.19,1.66-1.75,1.49-1.47.08.25-.09,0,1.12,2,1.08,4.56,1.06,6.75-.08,7.54-4.47,11.33-10.46,14.83-6.81,4,.33,7.32,4.63,8.07,7.09,1.23,15.24,1.73,22.29,0,3.36-.82,6.54-3.21,4.48-6.92-1.18-2.14-3.79-3.37-5.91-4.32a36.11,36.11,0,0,0-3.6-1.32c-2-.66-.4.07-.31.26a21.49,21.49,0,0,1-1.82-7.85c-.35-5.73,2.81-9.68,6.05-14,2.95-4,5.87-9.14,6.29-14.19l-1.7,2.19a9.69,9.69,0,0,1,4.13-1.15c2.88,0,.78,7.55.53,9.35-.68,5-4.06,7.66-6.81,11.51-1.67,2.32-2.8,5.24-1.89,8.05,2,6.25,14.87,2.67,19,2.16,4.3-.53,13,0,15.85-4.15s-10-7-11.57-7.51c-3.28-1.05-4.5-6-4.79-9a10.06,10.06,0,0,1,2.63-7.44c2.52-2.92,4.24-1.25,6.92,1,8,6.81,14.41,16.12,20.27,24.78,0-.64-.07-1.29-.1-1.93-1.81,2.89-8.95,13.5-3.08,15.36,5.28,1.67,13.31-6.67,16.7-9.29s7.07-5,10.11-7.88c2.15-2.08-1.25-3.74-3.09-2.43-.62.43-1.21.91-1.81,1.37l3.45,2c1.3-2.62,3.23-7.78,0-9.81-5-3.11-17.94,6.76-18.24-.56-.19-4.44-4.59-7.28-7.57-10.24q-6.42-6.37-12.95-12.65l-2.58,3.36c11.76,1.56,21,2.92,32.08,5.25L328.64,467a32.19,32.19,0,0,0-.92,10.38c.63,5.27,5.72,4.42,8.84,1.66,3.61-3.2,6.49-7.3,9.24-11.24,1.47-2.11,3.16-4.6,3.6-7.2.41-2.43-1.49-3.93-3.81-3.47l2.43,2c.65-3,1.1-8.83-3.71-7.91-3.9.74-5.51,5.07-8.87,6.64-4.07,1.89-9.54.27-13.57-.94a65.39,65.39,0,0,1-10.56-4.4c-1.35-.68-2.88-1.93-4.43-2.09-5.14-.51-10.33-1.33-15.5-1.33l1.87,1.52q-.6-69-1.21-138l-.75-85q-.09-10.5-.19-21c0-2.35-.29-1.87,1.26-3,3.73-2.8,11-1.61,15.19-1.19a121.78,121.78,0,0,1,38.6,10.93c5.33,2.47,21.8,10.23,16.21,18.45a1.6,1.6,0,0,0,1,2.45c5.44,1.8,8.64-3.56,10.8-7.59,1.56-2.91,3.06-5.84,5.46-8.15,3.48-3.36,8.58-1.35,12.24.54,2,1.05,5.79-1.87,3.26-3.4a398,398,0,0,0-46.5-23.85l-2.76,3.6c16.2,4.25,32.42,8.54,48.78,12.08a49.11,49.11,0,0,0,7.69,1.34c2.06.11,5.05-2.27,2.59-4-2.73-1.9,3.39-8.68,4.65-10.22,1.53-1.87,3.18-3.66,4.86-5.41.51-.54,1-1.07,1.56-1.6.22-.21,1.46-1.19.48-.52l-3.09-2.43c.42-.43-.21.06-.78.29a43.4,43.4,0,0,1-4.15,1.31c-3.76,1.06-7.58,1.92-11.4,2.7s-7.83,1.46-11.78,1.89a35.12,35.12,0,0,1-4.23.18,7.52,7.52,0,0,1-1.34-.14c-1-.2.17.1-.07.51l-4.18.83c6.21,6.44,16.9-17.67,18.68-21.33.91-1.88-1.19-3.15-2.86-2.28-7.13,3.7-14.7,7.65-20.57,13.22l2.34-1c-14.22.95-30.79,2.89-44.66-1.56-6.26-2-5.92-6-1.92-10.34,6.47-7,15.51-11.95,23.71-16.6,10.75-6.11,21.9-11.53,33.11-16.74,12.16-5.65,24.47-11.06,36.93-16,1.49-.6,2.65-3.14.41-3.63a6.53,6.53,0,0,1-5.5-7.06l-4.46,1.84c-.58-.9-.61-.09-1.78.77a38.22,38.22,0,0,1-4.88,2.93,99.67,99.67,0,0,1-12,5.21,53.6,53.6,0,0,1-11.66,3.07c-3.13.41-3.16.36-1-1.7,5.65-5.48,12.76-9.59,18.93-14.47,4.37-3.44,11.47-8.45,11.68-14.65.05-1.65-2.11-1.61-3.14-1.27-2.65.86-10.9,4.05-10.86-1.19a11,11,0,0,1,1.72-5c1.59-2.76-3-3-4.28-1.1a193.44,193.44,0,0,1-19.31,24.93c-1.79,1.94-8.76,10.28-12.09,8.65-3-1.45-.38-10.85.07-13,1.2-5.84,2.91-11.58,4.46-17.34.82-3.07,2.77-7.77,1.63-11-1.49-4.21-7,1.3-8.11,2.57-2.68,3-4.74,6.43-7,9.73-.53.79-1.75,2.75-2.2,2.35-1.87-1.7-2.71-5-3.53-7.33-.71-2-4.44-.89-4.67.91a67.36,67.36,0,0,0,7.71,40.51l2.23-2.88a191.34,191.34,0,0,1-37.43,6c-5.72.27-13.15.67-18.09-2.79-13.74-9.64,40.49-47.32,44.75-50.41,1.87-1.37,1-3.8-1.39-3.34-4.64.88-8.95.92-6.29-4.57a26.86,26.86,0,0,1,3.66-5.5c2.13-2.53-1.79-3.85-3.58-2A194.12,194.12,0,0,1,315.8,75.5a47.93,47.93,0,0,1-5.75,3.94,6.56,6.56,0,0,1-1.69.7c-.31.07.39.4.23,0-.61-1.63,1-4.72,1.6-6.16a115.86,115.86,0,0,1,6.95-13.7c1.27-2.27-1.94-3.08-3.45-2-2.68,2-6.92,5.38-10.51,3.76-2.5-1.13-3.52-4.34-4.18-6.76a35.79,35.79,0,0,1-.92-11.54l-4.83.92Q292,63.54,290.79,82.4c-.23,3.36-.46,6.72-.71,10.08-.21,2.87.4,6-3.25,6.06-5.48.08-11.52-2.66-16.36-5.05-1.64-.81-5.56,1.18-3.67,3.08a44.94,44.94,0,0,1,9,12.82c1.6,3.52,2.31,7.72-.53,10.78-3.32,3.59-8.39,6.37-12.6,8.78-13.24,7.58-28.42,8.4-41.15-.48-10.64-7.43-17.43-19.83-21.36-31.9-2.82-8.63-5.72-21.29-1.06-29.83,1.55-2.85-3-3-4.28-1.1-5.81,8.27-15.93,4.91-22.32-.33-1.42-1.16-5.65.16-4.35,2.34q6.72,11.22,13.14,22.62c3.1,5.49,6.14,11,9,16.64,1,2,2,4.13,2.94,6.25.3.71.57,1.44.8,2.18s-.18,1,.3.3l2.69-1.43c-9.46-.39-16.92-5.69-21.88-13.53A44.71,44.71,0,0,1,171.06,92c-.4-1.13-.74-2.27-1-3.42-.49-1.93.5-1.05-1.3.31l-2.94.28c-1-.8-.47-.42-.21.53a4.81,4.81,0,0,1-1.08,4.33c-2.23,2.88-5.81,4.74-8.84,6.64-2.82,1.76-9.15,6.53-2.91,8.67,8.31,2.84,16.71,5.16,24.74,8.79,3.15,1.42,6.71,3,9,5.76,1.56,1.89-3.16,5.63-4.31,6.8-5.63,5.72-11.91,10.75-17.62,16.39-1.64,1.62-7,7.95-1,7.71,2.12-.08,3.93-.58,6.1-.09a20.37,20.37,0,0,1,6.28,3.15c2.12,1.38,4.86,4.1,7.65,2.94,2.14-.88,2.32-3,2.92-4.93,1.15-3.79,2.53-7.52,3.88-11.25q3.15-8.73,6.48-17.41L194,129.17c6.56.13,13.7,2.26,18,7.4,0-.64-.07-1.29-.1-1.93-2.92,4.79-8.09,11.57-8,17.57.07,3.42,4.21,2.84,6.25,1.74,4.26-2.29,14.36-10.92,11.66-16.72l-4.35,2.34c2.77,3.45,5.9,6.5,10.1,8.1,3.35,1.27,6.23,1.78,8.4,4.9l1.32-3.11c-10.93,3.42-10,11.77-7.81,21.16.37,1.55,1.91,6.52.23,7.74A78.12,78.12,0,0,1,219,184.87a44.39,44.39,0,0,1-18.91,5c-11.61.26-23.64-7-29.26-17.16-.82-1.49-3.07-1.21-4.09,0q-3.85,4.37-7.59,8.84c-2.23,2.65-6.08,6.14-7,9.62-.32,1.25.72,1.92,1.81,2,9.19.88,21,.92,29.35,5.4,3.18,1.69-2.91,3.27-4.58,3.88-7.77,2.84-16.15,4.45-24.3,5.82-1.56.26-3.43,2.43-1.55,3.62,4.07,2.58,7.13,6.8,6.71,11.76-.19,2.3,3.32,1.38,4.2.55a51.78,51.78,0,0,1,9.08-6.56,46.93,46.93,0,0,1,5-2.52c1.11-.49,3.61-.86,3.32-1.47a1.88,1.88,0,0,0,1.76,1c1.85,0,4.47,7.48,5.2,8.85a20,20,0,0,0,7.22,8.17c1.4.84,5-.7,3.94-2.66-5.29-9.28-4.48-18.42,3.47-25.75a41.31,41.31,0,0,1,21.13-9.8,5.42,5.42,0,0,1,1.88,0c-1.25-.32-.09-1.66-1.32-.37a17.68,17.68,0,0,1-2.44,2c-4.26,3.12-8.88,5.71-13,9-2.17,1.74-5.94,4.87-5,8.12a5.07,5.07,0,0,0,4.1,3.7c1.39.26,5.36-1.66,6.21-1,1.14.87,3.14-.09,3.77-1.15,5.39-9.16,13.29-15.38,24.29-13.61,5.68.91,10.66,3.65,15.6,6.43,2.06,1.15,5.79-2,3.27-3.4-6.34-3.56-12.63-6.57-20-7.27-12.16-1.14-21.63,6.84-27.46,16.75l3.77-1.15c-1.74-1.33-3.82-.7-5.72-.05-5.58,1.94-1.83-3.14-.48-4.36,4.39-3.94,9.86-6.61,14.53-10.18,1.36-1,5.74-4.56,3.34-6.57-2-1.63-5.36-.79-7.58-.34A48.86,48.86,0,0,0,198,202.38c-8.23,8-8.87,18.84-3.33,28.57l3.94-2.66c-4.55-2.72-6.48-7.91-8.74-12.44-1.21-2.43-2.78-5.19-5.84-5.14l1.76,1c-3.51-7.46-22.68,7.72-25.59,10.45l4.2.55c.51-6-3.41-11.15-8.29-14.24-.52,1.21-1,2.42-1.55,3.62,9.91-1.66,21-3.39,30-8.09,3.44-1.8,6.77-5.26,2.74-8.39-2.57-2-6.51-2.65-9.58-3.32a191.92,191.92,0,0,0-22.66-3.1l1.81,2c.8-3.12,5.07-6.79,7.14-9.25s4.16-4.88,6.28-7.29l-4.09,0c5.95,10.79,17.64,18,29.76,19.09,13.15,1.22,25.92-5.25,36.36-12.55,10-7-8.62-23.57,6.41-28.27a2.1,2.1,0,0,0,1.32-3.11,12.46,12.46,0,0,0-6.95-4.83,23,23,0,0,1-11.55-8.17c-1.32-1.65-5.32.25-4.35,2.34,1.47,3.16-5.43,9-7.49,10.61a8.91,8.91,0,0,1-2,1.22c1.4-.57.76,1.11,1.19-.88,1.1-5.09,4.62-10,7.27-14.36a1.62,1.62,0,0,0-.1-1.93c-5-6-13.4-8.44-21-8.6a3,3,0,0,0-2.91,1.93q-3.3,8.69-6.47,17.41c-1.28,3.52-2.54,7-3.69,10.61-.31,1-.62,2-.84,3,.5-2.3,3.37-.19,1-1.67-1-.61-1.94-1.32-2.91-2a21.4,21.4,0,0,0-11.27-4.08,14.56,14.56,0,0,0-3,.36c-1.64.29.88-.22.55,1.37.17-.84,1.56-1.9,2.12-2.48,5.52-5.72,11.8-10.69,17.47-16.25,3.34-3.27,9-8,5.08-12.71-4.83-5.82-14.91-8.4-21.74-10.8-3.77-1.33-7.59-2.53-11.42-3.7a16.82,16.82,0,0,1-2-.65c-.53-.23-.6.86,0,.2a20.6,20.6,0,0,1,3.89-2.63c4.82-3,12-7.08,11.61-13.68a5.19,5.19,0,0,0-1.49-3.63,2.82,2.82,0,0,0-2.94.28c-2.13,1.61-.7,4.69-.05,6.75a45.33,45.33,0,0,0,6.68,13,30.86,30.86,0,0,0,14.08,10.69c2.65,1,12.35,3.95,12.22-1.43-.09-3.36-2.66-7.22-4.11-10.11-2.82-5.64-5.9-11.15-9-16.64Q179.53,77,172.81,65.73l-4.35,2.34c9.57,7.85,22.86,9.81,30.68-1.33l-4.28-1.1c-5.16,9.47-2.48,22.33.47,32.05,4,13.24,11.67,26,23,34.18,12.62,9.18,28.43,8.67,42.19,2.41a76,76,0,0,0,12.58-7.47c3.58-2.56,7.27-5.07,8.68-9.41,2.24-6.9-3.57-14.85-7.59-19.88a46.25,46.25,0,0,0-3.28-3.71l-3.67,3.08c5.52,2.72,11.57,5,17.73,5.57,3,.27,6.63-.46,8.45-3.06C295,97,294.77,93.58,295,90.78c1.14-15.67,2.12-31.36,3.11-47.05.17-2.62-4.68-1.46-4.83.92-.34,5.35.13,11.32,2.47,16.2,4.35,9.11,14.45,4.82,20.59.26l-3.45-2a141.29,141.29,0,0,0-7.38,14.71c-1,2.34-2.19,5.31-1.58,7.89,1.13,4.77,7.76,1.19,10.08-.25,8.83-5.47,16.56-13.4,23.81-20.79l-3.58-2c-2.49,3-5,6.51-5.79,10.37-1.4,7.17,7.79,6.4,12.16,5.56l-1.39-3.34c-15,10.93-31.24,22.4-42.85,37.14-3.71,4.69-9.09,12.75-3.95,18.32,4.45,4.83,13.34,4.7,19.31,4.61,13.79-.21,27.72-2.86,41-6.23,1-.26,3-1.49,2.23-2.88a64.23,64.23,0,0,1-7.61-38.49l-4.67.91c1.69,4.69,5.69,13.8,11.73,7.79,2.63-2.62,4.45-6,6.54-9.06a34.06,34.06,0,0,1,4.67-5.5c-.06.05-2.13-1.49-2.08,0,.15,5-2.43,10.85-3.73,15.65-1.67,6.17-3.39,12.46-3.77,18.87-.21,3.51.54,8.08,4.84,8.4,5.46.42,10.42-4.42,14-7.89,8.71-8.36,16.06-18.57,22.72-28.62l-4.28-1.1c-1.46,2.53-2.86,6-2.07,8.92,1.86,6.9,12.65,3.26,16.93,1.86l-3.14-1.27c-.12,3.52-4.6,6.79-7,8.87-4.31,3.75-9.05,7-13.65,10.39-1.71,1.25-16.23,10.68-10.36,13.83,7.07,3.79,45.63-10.25,40.66-17.93-1.19-1.83-4.39.15-4.46,1.84-.22,5.08,3.19,8.87,8.08,9.94.14-1.21.28-2.42.41-3.63-14.49,5.8-28.8,12.15-42.9,18.85-11.05,5.25-22,10.79-32.53,17-7.64,4.51-16.06,9.49-21.75,16.46-2.15,2.64-4.26,6.32-2.59,9.73,2.07,4.23,8.15,5.45,12.28,6.2,9.91,1.78,20.23,1.45,30.24,1.05,3.48-.14,7-.35,10.42-.58,2.54-.17,4.77-3.06,6.76-4.46a124,124,0,0,1,14-8.29l-2.86-2.28c-1.44,3-3,5.89-4.58,8.78-1.2,2.18-2.48,4.33-3.82,6.42-.62,1-1.28,1.91-2,2.82-.27.34-.56.67-.86,1-1.29,1.43-.21-.52.93.66-1.17-1.21-3.41-.47-4.18.83-4.3,7.28,14.94,3.77,17.11,3.4A164.84,164.84,0,0,0,408.61,190c2.65-.72,6.35-1.34,8.35-3.42s-1.23-3.72-3.09-2.43c-5.56,3.85-11.23,11.4-13.87,17.52a6,6,0,0,0-.4,4.17,4.3,4.3,0,0,0,1,1.51c2.17,2.23-.72-2.36,3.05-2.6-2.58.16-5.57-.93-8.06-1.47-15.91-3.49-31.68-7.65-47.43-11.79-1.83-.48-5.3,2.49-2.76,3.6a399.55,399.55,0,0,1,46.5,23.85l3.26-3.4c-6.93-3.58-14.32-4.24-20,1.8-1.93,2-6.9,13.85-9.47,13,.33.82.67,1.63,1,2.45,6.67-9.82-7.78-18.17-14.83-21.79a125.09,125.09,0,0,0-44-12.73c-5.23-.52-11-.7-16,1.27-2.25.89-5.6,3.51-5.58,6.17q.08,8,.14,15.91.78,87.95,1.55,175.88l.48,54c0,1,1,1.52,1.87,1.52,4.92,0,9.86.77,14.76,1.26,1.64.16-.93-.54,0,0s1.61.89,2.42,1.32a89.11,89.11,0,0,0,8.28,3.73c6.06,2.41,13.9,4.65,20.32,2.28,3.72-1.38,5.41-4.26,8.49-6.53-.86-.36-1.17-.21-.93.43a8.87,8.87,0,0,1,0,1.63,13,13,0,0,1-.29,1.87c-.32,1.49,1.13,2.23,2.43,2a1.06,1.06,0,0,1-.8-.1c-.64-.31-.34.41-.88,1.6-2.35,5.11-6.4,10-10.39,13.93-1.34,1.32-.84,1.58-1.11.06a16.63,16.63,0,0,1,0-4.17,37.87,37.87,0,0,1,.82-5.19,1.59,1.59,0,0,0-1.23-1.95c-11.07-2.33-22-3.92-33.25-5.41-1.44-.19-4.1,1.9-2.58,3.36q5.43,5.25,10.83,10.56c2.73,2.69,8.86,6.93,8.92,10.49.09,5.59,4.75,6.61,9.48,5.6,1.92-.41,10.13-4.86,10.49-1.7a8.78,8.78,0,0,1-1.16,4.45c-1.13,2.27,1.88,3.17,3.45,2,.59-.46,1.18-.95,1.8-1.38L337,490.61c1-.94-.52.38-.78.58q-2.08,1.63-4.19,3.25c-5,3.89-10.14,9.07-16.1,11.47-.46.18.47.64.42.22a4.52,4.52,0,0,1,.31-1.66,22.47,22.47,0,0,1,1.6-3.83c.86-1.74,1.83-3.44,2.86-5.09a1.64,1.64,0,0,0-.1-1.93c-2.94-4.34-6.07-8.55-9.3-12.67-4.26-5.43-9.1-12-15.36-15.24-6.56-3.41-12.67,4.46-13.88,10.15-1.08,5.11,1.41,10,4.46,13.85,1.18,1.5,5.42,2,7.21,2.57,1.18.41,2.34.88,3.47,1.4,2.4,1.11.11.8,2-.72-2.11,1.69-8.27,1.37-10.83,1.68-3.1.38-16.73,3.93-15.55-1.93.61-3,3.53-5.19,5.33-7.5a19.09,19.09,0,0,0,2.83-5.28c1.24-3.34,2.15-8.85,1.56-12.35-.94-5.56-8.1-4-11.65-2.34-1.91.91-1.75,2.49-2.22,4.22-1.66,6.15-6.13,10.53-9.39,15.77-2.54,4.07-2.87,9.24-2.09,13.84.28,1.67.86,6.11,3,6.65,2.92.75,6,1.85,8.27,3.94,1.53,1.44.45,1.34-1.15,1.67a36.81,36.81,0,0,1-6.46.53,70.51,70.51,0,0,1-12.06-.79,26.76,26.76,0,0,1-4.14-1c-.72-.24-.39-.37-.81-.06a27.91,27.91,0,0,1,3.41-1.84c8.43-4.58,11.85-15.15,9-24.11-2.41-7.59-9.39,0-11.89,3.07s-4.61,6.22-7.09,9.19c-2,2.45-4.86,3.33-5,7,0,1.28,0,2.54.06,3.82.1,2.47-1,2.76,1.84,2.52-.83.07-2-.84-2.71-1.21a54.91,54.91,0,0,1-9.36-7.05,46.76,46.76,0,0,1-6.93-7.41c-.7-1-.91-2-1.23-1.93,2.22-.57,5.13.64,7.21,1.31a53.62,53.62,0,0,1,7.78,3.28,3,3,0,0,0,3.41-.69q8-7.18,15.67-14.64c3.9-3.75,7.75-7.56,11.44-11.52,2.14-2.31,4.9-4.93,6.05-7.93,2.56-6.63-13.31-.21-14.77.34-8.82,3.36-19.71,7-27.08,13.09l2.93-.28a3.08,3.08,0,0,0-4.67,3.22c.26,1.29.69,2.53.92,3.82.43,2.32-.53-.32,1.52.18-1.72-.42-3.44-2-4.82-3l.72,1.75c.66-2.09-1.31-3.1-2.82-4A5.52,5.52,0,0,1,215,472.8c-.17-1.23.58-2.42.42-3.59-.25-1.84-.45-3.66-.53-5.51a9.73,9.73,0,0,1,.23-2.69c-.46,2-2.58-.32-.84,1.14a21.2,21.2,0,0,1,3.07,3.48,52.25,52.25,0,0,1,3.34,5,2.32,2.32,0,0,0,3,.78q10.58-4.45,21.28-8.61c5.23-2,10.49-4,15.8-5.83,2.56-.87,7.63-3.22,10.07-2.73,1.43.29,3.63-.61,3.55-2.36Q271,383,267.56,314.19q-2.74-54.9-5.47-109.8c-.14-2.67-5-1.47-4.84.93Z" transform="translate(-150.09 -42.24)"/></g></svg>